<?xml version="1.0" ?><svg viewBox="0 0 88 88" xmlns="http://www.w3.org/2000/svg"><title/><g data-name="Set Square" id="Set_Square"><polygon points="15 73 52.586 73 15 35.414 15 73"/><path d="M86.707,85.293,77.4141,76,73.207,80.207a1,1,0,0,1-1.414-1.414L76,74.5859,69.4141,68,65.207,72.207a1,1,0,0,1-1.414-1.414L68,66.5859,61.4141,60,57.207,64.207a1,1,0,1,1-1.414-1.414L60,58.5859,53.4141,52,49.207,56.207a1,1,0,0,1-1.414-1.414L52,50.5859,45.4141,44,41.207,48.207a1,1,0,0,1-1.414-1.414L44,42.5859,37.4141,36,33.207,40.207a1,1,0,0,1-1.414-1.414L36,34.5859,29.4141,28,25.207,32.207a1,1,0,0,1-1.414-1.414L28,26.5859,21.4141,20,17.207,24.207a1,1,0,0,1-1.414-1.414L20,18.5859,13.4141,12,9.207,16.207a1,1,0,1,1-1.414-1.414L12,10.5859,2.707,1.293A1,1,0,0,0,1,2V86a1,1,0,0,0,1,1H86a1,1,0,0,0,.707-1.707Zm-30.7832-10.91A1,1,0,0,1,55,75H14a1,1,0,0,1-1-1V33a1,1,0,0,1,1.707-.707l41,41A1,1,0,0,1,55.9238,74.3828Z"/></g></svg>